<svg width="83" height="83" viewBox="0 0 83 83" fill="none" xmlns="http://www.w3.org/2000/svg">
<circle cx="41.5003" cy="41.5" r="41.2817" transform="rotate(89.6962 41.5003 41.5)" fill="#192837"/>
<mask id="mask0_871_3897" style="mask-type:alpha" maskUnits="userSpaceOnUse" x="0" y="0" width="83" height="83">
<circle cx="41.5003" cy="41.5" r="41.2817" transform="rotate(89.6962 41.5003 41.5)" fill="#192837"/>
</mask>
<g mask="url(#mask0_871_3897)">
<path d="M21.8709 34.2205C20.1964 34.3117 18.7413 33.0219 18.9014 31.3525C19.2082 28.1528 20.2744 25.0567 22.0297 22.3293C24.3356 18.7464 27.7132 15.9825 31.6815 14.4311C35.6497 12.8797 40.0063 12.6199 44.1308 13.6888C48.2553 14.7577 51.9374 17.1007 54.6527 20.3841C57.368 23.6676 58.9781 27.7241 59.2536 31.9759C59.5291 36.2277 58.4561 40.4581 56.1872 44.0645C53.9184 47.671 50.5695 50.4696 46.6174 52.0618C43.609 53.2739 40.3677 53.7399 37.1673 53.4405C35.4976 53.2844 34.5038 51.613 34.9078 49.9853C35.3117 48.3577 36.9656 47.4009 38.6419 47.4495C40.5832 47.5057 42.5265 47.1626 44.3479 46.4288C47.1144 45.3142 49.4586 43.3552 51.0468 40.8307C52.635 38.3062 53.3861 35.3449 53.1933 32.3686C53.0004 29.3923 51.8734 26.5528 49.9726 24.2544C48.0719 21.9559 45.4945 20.3158 42.6073 19.5676C39.7202 18.8194 36.6706 19.0013 33.8928 20.0872C31.115 21.1732 28.7507 23.108 27.1366 25.616C26.0738 27.2672 25.372 29.1116 25.0627 31.0289C24.7957 32.6845 23.5455 34.1294 21.8709 34.2205Z" fill="white"/>
<path d="M60.1139 48.4288C61.7884 48.3375 63.2436 49.6273 63.0836 51.2967C62.777 54.4964 61.711 57.5926 59.9558 60.3201C57.6502 63.9031 54.2728 66.6673 50.3046 68.2189C46.3364 69.7706 41.9799 70.0307 37.8553 68.9621C33.7307 67.8935 30.0485 65.5507 27.333 62.2674C24.6174 58.9841 23.0071 54.9277 22.7313 50.6759C22.4555 46.4241 23.5283 42.1937 25.7969 38.5871C28.0655 34.9805 31.4142 32.1817 35.3662 30.5892C38.3746 29.3769 41.6157 28.9107 44.8162 29.2099C46.486 29.3659 47.4798 31.0372 47.0759 32.6649C46.6721 34.2926 45.0183 35.2495 43.342 35.201C41.4007 35.1449 39.4574 35.4881 37.636 36.2221C34.8697 37.3368 32.5256 39.296 30.9375 41.8206C29.3495 44.3452 28.5986 47.3066 28.7916 50.2828C28.9847 53.2591 30.1119 56.0986 32.0128 58.3969C33.9136 60.6952 36.4912 62.3351 39.3784 63.0831C42.2656 63.8311 45.3152 63.6491 48.0929 62.5629C50.8707 61.4768 53.2348 59.5418 54.8488 57.0337C55.9114 55.3824 56.6132 53.5381 56.9223 51.6207C57.1892 49.9651 58.4393 48.5201 60.1139 48.4288Z" fill="white"/>
<rect y="48.2334" width="25.3044" height="5.06088" fill="white"/>
<rect x="57.6953" y="29.3398" width="25.3044" height="5.06088" fill="white"/>
</g>
</svg>
