<svg width="83" height="83" viewBox="0 0 83 83" fill="none" xmlns="http://www.w3.org/2000/svg">
<circle cx="24.9981" cy="25" r="24.8685" transform="rotate(89.6962 24.9981 25)" fill="white"/>
<mask id="mask0_859_3858" style="mask-type:alpha" maskUnits="userSpaceOnUse" x="0" y="0" width="50" height="50">
<circle cx="24.9981" cy="25" r="24.8685" transform="rotate(89.6962 24.9981 25)" fill="#192837"/>
</mask>
<g mask="url(#mask0_859_3858)">
<path d="M13.1737 20.6151C12.1649 20.67 11.2883 19.893 11.3848 18.8874C11.5696 16.9598 12.2119 15.0947 13.2693 13.4517C14.6584 11.2933 16.6931 9.62832 19.0836 8.69374C21.4741 7.75916 24.0986 7.60267 26.5832 8.24657C29.0679 8.89047 31.286 10.3019 32.9217 12.2799C34.5575 14.2579 35.5274 16.7016 35.6933 19.2629C35.8593 21.8243 35.2129 24.3727 33.8461 26.5452C32.4794 28.7178 30.4619 30.4037 28.0812 31.3629C26.2689 32.093 24.3163 32.3737 22.3883 32.1934C21.3825 32.0993 20.7839 31.0925 21.0272 30.112V30.112C21.2705 29.1314 22.2668 28.5551 23.2767 28.5843C24.4461 28.6182 25.6168 28.4115 26.714 27.9695C28.3806 27.298 29.7927 26.1179 30.7495 24.5971C31.7062 23.0763 32.1587 21.2924 32.0425 19.4995C31.9264 17.7065 31.2474 15.996 30.1024 14.6114C28.9574 13.2268 27.4047 12.2388 25.6655 11.788C23.9262 11.3373 22.0891 11.4469 20.4157 12.1011C18.7424 12.7553 17.3181 13.9208 16.3457 15.4316C15.7055 16.4264 15.2827 17.5374 15.0964 18.6924C14.9356 19.6898 14.1824 20.5602 13.1737 20.6151V20.6151Z" fill="#192837"/>
<path d="M36.2133 29.1741C37.2221 29.1191 38.0987 29.8961 38.0023 30.9017C37.8176 32.8293 37.1754 34.6945 36.1181 36.3375C34.7292 38.496 32.6946 40.1611 30.3041 41.0959C27.9137 42.0306 25.2892 42.1873 22.8045 41.5435C20.3199 40.8998 18.1016 39.4885 16.4658 37.5106C14.8299 35.5327 13.8599 33.0891 13.6937 30.5278C13.5276 27.9665 14.1738 25.418 15.5404 23.2454C16.9071 21.0727 18.9244 19.3867 21.3051 18.4273C23.1173 17.6971 25.0699 17.4162 26.9979 17.5964C28.0037 17.6904 28.6024 18.6973 28.3591 19.6778V19.6778C28.1159 20.6583 27.1196 21.2347 26.1098 21.2056C24.9403 21.1717 23.7697 21.3785 22.6724 21.8207C21.006 22.4922 19.5938 23.6724 18.6372 25.1933C17.6806 26.7141 17.2282 28.4981 17.3445 30.291C17.4608 32.0839 18.1399 33.7944 19.285 35.179C20.43 36.5635 21.9828 37.5514 23.7221 38.002C25.4614 38.4526 27.2985 38.343 28.9718 37.6886C30.6451 37.0343 32.0693 35.8687 33.0416 34.3578C33.6817 33.363 34.1045 32.252 34.2907 31.0969C34.4514 30.0996 35.2045 29.2291 36.2133 29.1741V29.1741Z" fill="#192837"/>
<rect y="29.0557" width="15.2436" height="3.04872" fill="#192837"/>
<rect x="34.7578" y="17.6748" width="15.2436" height="3.04872" fill="#192837"/>
</g>
</svg>
