<svg width="83" height="83" viewBox="0 0 83 83" fill="none" xmlns="http://www.w3.org/2000/svg">
<circle cx="41.002" cy="41.0008" r="40.7851" transform="rotate(89.6962 41.002 41.0008)" fill="white"/>
<mask id="mask0_771_5211" style="mask-type:alpha" maskUnits="userSpaceOnUse" x="0" y="0" width="82" height="82">
<circle cx="41.002" cy="41.0008" r="40.7851" transform="rotate(89.6962 41.002 41.0008)" fill="#192837"/>
</mask>
<g mask="url(#mask0_771_5211)">
<path d="M21.6068 33.9794C19.9524 34.0695 18.5148 32.7952 18.6729 31.1459C18.9761 27.9846 20.0294 24.9258 21.7637 22.2312C24.0418 18.6914 27.3788 15.9607 31.2993 14.428C35.2198 12.8952 39.524 12.6386 43.5989 13.6946C47.6738 14.7506 51.3116 17.0655 53.9942 20.3094C56.6769 23.5534 58.2675 27.5611 58.5398 31.7618C58.812 35.9625 57.7518 40.1419 55.5103 43.705C53.2687 47.268 49.9601 50.033 46.0556 51.6061C43.0833 52.8036 39.8811 53.2639 36.7191 52.9682C35.0695 52.8139 34.0877 51.1626 34.4868 49.5545C34.8859 47.9465 36.5199 47.0012 38.176 47.0492C40.094 47.1048 42.0139 46.7658 43.8134 46.0408C46.5466 44.9396 48.8626 43.0041 50.4317 40.51C52.0007 38.0159 52.7429 35.0902 52.5523 32.1498C52.3618 29.2093 51.2483 26.4039 49.3704 24.1331C47.4926 21.8623 44.9461 20.242 42.0937 19.5028C39.2413 18.7635 36.2284 18.9432 33.484 20.0161C30.7396 21.089 28.4038 23.0005 26.809 25.4783C25.7591 27.1097 25.0657 28.9319 24.7602 30.8261C24.4964 32.4618 23.2612 33.8893 21.6068 33.9794Z" fill="#192837"/>
<path d="M59.3936 48.0157C61.048 47.9255 62.4857 49.1997 62.3277 50.849C62.0247 54.0103 60.9716 57.0692 59.2375 59.764C56.9596 63.3039 53.6228 66.0348 49.7024 67.5678C45.782 69.1008 41.4778 69.3577 37.4028 68.3019C33.3279 67.2462 29.6899 64.9316 27.0071 61.6878C24.3242 58.444 22.7333 54.4365 22.4608 50.2358C22.1883 46.0351 23.2482 41.8556 25.4895 38.2924C27.7308 34.7292 31.0392 31.964 34.9436 30.3907C37.9158 29.193 41.118 28.7324 44.28 29.0279C45.9297 29.1821 46.9115 30.8333 46.5126 32.4414C46.1136 34.0495 44.4797 34.9949 42.8235 34.947C40.9056 34.8916 38.9857 35.2307 37.1862 35.9558C34.4531 37.0572 32.1372 38.9928 30.5683 41.487C28.9994 43.9813 28.2575 46.9069 28.4482 49.8474C28.6389 52.7879 29.7526 55.5932 31.6306 57.8638C33.5086 60.1345 36.0552 61.7547 38.9076 62.4937C41.7601 63.2327 44.773 63.0529 47.5173 61.9798C50.2616 60.9067 52.5974 58.9951 54.1919 56.5171C55.2418 54.8857 55.9351 53.0635 56.2404 51.1692C56.5041 49.5335 57.7392 48.1059 59.3936 48.0157Z" fill="#192837"/>
<rect y="46" width="25" height="5" fill="#192837"/>
<rect x="57" y="32" width="25" height="5" fill="#192837"/>
</g>
</svg>
